<svg version="1.1" id="Layer_1" xmlns="http://www.w3.org/2000/svg" xmlns:xlink="http://www.w3.org/1999/xlink" x="0px" y="0px" viewBox="0 0 100 100" enable-background="new 0 0 100 100" xml:space="preserve" preserveAspectRatio="xMidYMid" width="227.99999713897705" height="227.99999713897705" style="margin-top:0px;margin-right:0px;margin-bottom:0px;margin-left:0px;display:block;shape-rendering:auto;background-position-x:0%;background-position-y:0%;background-size:auto;background-origin:padding-box;background-clip:border-box;background:scroll rgb(255, 255, 255) none  repeat;width:227.99999713897705px;height:227.99999713897705px;;animation:none"><g class="ldl-scale" style="transform-origin:50px 50px;transform:matrix(0.435711, 0.670936, -0.670936, 0.435711, 0, 0);;animation:none"><g class="ldl-ani"><g class="ldl-layer"><g class="ldl-ani"><g><g class="ldl-layer"><g class="ldl-ani" style="transform-origin:50px 50px;transform:matrix(1.03, 0, 0, 1.03, 0, 0);animation-duration:1s;animation-timing-function:linear;animation-delay:-0.55s;animation-iteration-count:infinite;animation-direction:normal;animation-fill-mode:forwards;animation-play-state:paused;animation-name:animate;animation-timeline:auto;animation-range-start:normal;animation-range-end:normal;transform-box:view-box;;animation:none"><path fill="#E15D64" stroke="#333435" stroke-width="3.5" stroke-linecap="round" stroke-linejoin="round" stroke-miterlimit="10" d=" M45.7,25.97c6.98,9.61,5.94,23.49,5.94,23.49s-13.53-3.31-20.51-12.91C26.06,29.57,24,23.1,24.48,18.52 c-0.05,0.04,6.01,1.82,6.01,1.82s0.18-6.31,0.13-6.28C35.11,15.02,40.63,18.99,45.7,25.97z" style="stroke-width:3.5px;fill:rgb(225, 93, 100);stroke:rgb(51, 52, 53);;animation:none"></path></g></g>
<g class="ldl-layer"><g class="ldl-ani" style="transform-origin:50px 50px;transform:matrix(1.02425, 0, 0, 1.02425, 0, 0);animation-duration:1s;animation-timing-function:linear;animation-delay:-0.6s;animation-iteration-count:infinite;animation-direction:normal;animation-fill-mode:forwards;animation-play-state:paused;animation-name:animate;animation-timeline:auto;animation-range-start:normal;animation-range-end:normal;transform-box:view-box;;animation:none"><path fill="#E15D64" stroke="#333435" stroke-width="3.5" stroke-linecap="round" stroke-linejoin="round" stroke-miterlimit="10" d=" M27.47,47.86c11.29-3.67,24.18,1.61,24.18,1.61s-7.32,11.84-18.62,15.51c-8.21,2.67-15,2.63-19.21,0.77 c0.02,0.06,3.59-5.15,3.59-5.15s-5.95-2.12-5.93-2.06C13.78,54.55,19.25,50.53,27.47,47.86z" style="stroke-width:3.5px;fill:rgb(225, 93, 100);stroke:rgb(51, 52, 53);;animation:none"></path></g></g>
<g class="ldl-layer"><g class="ldl-ani" style="transform-origin:50px 50px;transform:matrix(1.0075, 0, 0, 1.0075, 0, 0);animation-duration:1s;animation-timing-function:linear;animation-delay:-0.65s;animation-iteration-count:infinite;animation-direction:normal;animation-fill-mode:forwards;animation-play-state:paused;animation-name:animate;animation-timeline:auto;animation-range-start:normal;animation-range-end:normal;transform-box:view-box;;animation:none"><path fill="#E15D64" stroke="#333435" stroke-width="3.5" stroke-linecap="round" stroke-linejoin="round" stroke-miterlimit="10" d=" M42.65,71.97c0-11.87,9-22.5,9-22.5s9,10.63,9,22.5c0,8.64-2.13,15.08-5.21,18.5c0.06,0-3.79-5-3.79-5s-3.86,5-3.79,5 C44.78,87.05,42.65,80.6,42.65,71.97z" style="stroke-width:3.5px;fill:rgb(225, 93, 100);stroke:rgb(51, 52, 53);;animation:none"></path></g></g>
<g class="ldl-layer"><g class="ldl-ani" style="transform-origin:50px 50px;transform:matrix(0.99, 0, 0, 0.99, 0, 0);animation-duration:1s;animation-timing-function:linear;animation-delay:-0.7s;animation-iteration-count:infinite;animation-direction:normal;animation-fill-mode:forwards;animation-play-state:paused;animation-name:animate;animation-timeline:auto;animation-range-start:normal;animation-range-end:normal;transform-box:view-box;;animation:none"><path fill="#E15D64" stroke="#333435" stroke-width="3.5" stroke-linecap="round" stroke-linejoin="round" stroke-miterlimit="10" d=" M70.26,64.98c-11.29-3.67-18.62-15.51-18.62-15.51s12.89-5.28,24.18-1.61c8.21,2.67,13.69,6.69,15.99,10.67 c0.02-0.06-5.93,2.06-5.93,2.06s3.56,5.21,3.58,5.15C85.27,67.61,78.48,67.65,70.26,64.98z" style="stroke-width:3.5px;fill:rgb(225, 93, 100);stroke:rgb(51, 52, 53);;animation:none"></path></g></g>
<g class="ldl-layer"><g class="ldl-ani" style="transform-origin:50px 50px;transform:matrix(0.97254, 0, 0, 0.97254, 0, 0);animation-duration:1s;animation-timing-function:linear;animation-delay:-0.75s;animation-iteration-count:infinite;animation-direction:normal;animation-fill-mode:forwards;animation-play-state:paused;animation-name:animate;animation-timeline:auto;animation-range-start:normal;animation-range-end:normal;transform-box:view-box;;animation:none"><path fill="#E15D64" stroke="#333435" stroke-width="3.5" stroke-linecap="round" stroke-linejoin="round" stroke-miterlimit="10" d=" M72.15,36.55c-6.98,9.61-20.51,12.91-20.51,12.91s-1.04-13.89,5.94-23.49c5.08-6.99,10.59-10.95,15.09-11.91 c-0.05-0.04,0.13,6.28,0.13,6.28s6.06-1.78,6.01-1.82C79.29,23.1,77.23,29.57,72.15,36.55z" style="stroke-width:3.5px;fill:rgb(225, 93, 100);stroke:rgb(51, 52, 53);;animation:none"></path></g></g></g></g></g>
<g class="ldl-layer"><g class="ldl-ani"><g><g class="ldl-layer"><g class="ldl-ani" style="transform-origin:50px 50px;transform:matrix(0.949676, 0, 0, 0.949676, 0, 0);animation-duration:1s;animation-timing-function:linear;animation-delay:-0.8s;animation-iteration-count:infinite;animation-direction:normal;animation-fill-mode:forwards;animation-play-state:paused;animation-name:animate;animation-timeline:auto;animation-range-start:normal;animation-range-end:normal;transform-box:view-box;;animation:none"><path fill="#F8AFB4" stroke="#333435" stroke-width="3.5" stroke-linecap="round" stroke-linejoin="round" stroke-miterlimit="10" d=" M59,27.5C59,39.37,50,50,50,50s-9-10.63-9-22.5c0-8.64,2.13-15.08,5.21-18.5C46.14,9,50,14,50,14s3.86-5,3.79-5 C56.87,12.42,59,18.86,59,27.5z" style="stroke-width:3.5px;fill:rgb(248, 175, 180);stroke:rgb(51, 52, 53);;animation:none"></path></g></g>
<g class="ldl-layer"><g class="ldl-ani" style="transform-origin:50px 50px;transform:matrix(0.929102, 0, 0, 0.929102, 0, 0);animation-duration:1s;animation-timing-function:linear;animation-delay:-0.85s;animation-iteration-count:infinite;animation-direction:normal;animation-fill-mode:forwards;animation-play-state:paused;animation-name:animate;animation-timeline:auto;animation-range-start:normal;animation-range-end:normal;transform-box:view-box;;animation:none"><path fill="#F8AFB4" stroke="#333435" stroke-width="3.5" stroke-linecap="round" stroke-linejoin="round" stroke-miterlimit="10" d=" M31.38,34.49C42.68,38.16,50,50,50,50s-12.89,5.28-24.18,1.61c-8.21-2.67-13.69-6.69-15.99-10.67c-0.02,0.06,5.93-2.06,5.93-2.06 s-3.56-5.21-3.58-5.15C16.38,31.85,23.17,31.82,31.38,34.49z" style="stroke-width:3.5px;fill:rgb(248, 175, 180);stroke:rgb(51, 52, 53);;animation:none"></path></g></g>
<g class="ldl-layer"><g class="ldl-ani" style="transform-origin:50px 50px;transform:matrix(0.916203, 0, 0, 0.916203, 0, 0);animation-duration:1s;animation-timing-function:linear;animation-delay:-0.9s;animation-iteration-count:infinite;animation-direction:normal;animation-fill-mode:forwards;animation-play-state:paused;animation-name:animate;animation-timeline:auto;animation-range-start:normal;animation-range-end:normal;transform-box:view-box;;animation:none"><path fill="#F8AFB4" stroke="#333435" stroke-width="3.5" stroke-linecap="round" stroke-linejoin="round" stroke-miterlimit="10" d=" M29.49,62.91C36.47,53.31,50,50,50,50s1.04,13.89-5.94,23.49c-5.08,6.99-10.59,10.95-15.09,11.91c0.05,0.04-0.13-6.28-0.13-6.28 s-6.06,1.78-6.01,1.82C22.35,76.37,24.42,69.9,29.49,62.91z" style="stroke-width:3.5px;fill:rgb(248, 175, 180);stroke:rgb(51, 52, 53);;animation:none"></path></g></g>
<g class="ldl-layer"><g class="ldl-ani" style="transform-origin:50px 50px;transform:matrix(0.91, 0, 0, 0.91, 0, 0);animation-duration:1s;animation-timing-function:linear;animation-delay:-0.95s;animation-iteration-count:infinite;animation-direction:normal;animation-fill-mode:forwards;animation-play-state:paused;animation-name:animate;animation-timeline:auto;animation-range-start:normal;animation-range-end:normal;transform-box:view-box;;animation:none"><path fill="#F8AFB4" stroke="#333435" stroke-width="3.5" stroke-linecap="round" stroke-linejoin="round" stroke-miterlimit="10" d=" M55.94,73.49C48.96,63.89,50,50,50,50s13.53,3.31,20.51,12.91c5.08,6.99,7.14,13.46,6.66,18.03c0.05-0.04-6.01-1.82-6.01-1.82 s-0.18,6.31-0.13,6.28C66.53,84.44,61.02,80.48,55.94,73.49z" style="stroke-width:3.5px;fill:rgb(248, 175, 180);stroke:rgb(51, 52, 53);;animation:none"></path></g></g>
<g class="ldl-layer"><g class="ldl-ani" style="transform-origin:50px 50px;transform:matrix(0.91, 0, 0, 0.91, 0, 0);animation-duration:1s;animation-timing-function:linear;animation-delay:-1s;animation-iteration-count:infinite;animation-direction:normal;animation-fill-mode:forwards;animation-play-state:paused;animation-name:animate;animation-timeline:auto;animation-range-start:normal;animation-range-end:normal;transform-box:view-box;;animation:none"><path fill="#F8AFB4" stroke="#333435" stroke-width="3.5" stroke-linecap="round" stroke-linejoin="round" stroke-miterlimit="10" d=" M74.18,51.61C62.89,55.28,50,50,50,50s7.32-11.84,18.62-15.51c8.21-2.67,15-2.63,19.21-0.77c-0.02-0.06-3.59,5.15-3.59,5.15 s5.95,2.12,5.93,2.06C87.87,44.92,82.39,48.94,74.18,51.61z" style="stroke-width:3.5px;fill:rgb(248, 175, 180);stroke:rgb(51, 52, 53);;animation:none"></path></g></g></g></g></g>
<metadata xmlns:d="https://loading.io/stock/"><d:name>sakura</d:name>


<d:tags>sakura,flower,petal,cherry blossom,bloom,plum,peach</d:tags>


<d:license>by</d:license>


<d:slug>eqxx8a</d:slug></metadata></g></g>
<STYLE type="text/css">@keyframes animate { 0.00% {transform: translate(0.00px,0.00px) rotate(0.00deg) scale(0.91, 0.91) skew(0deg, 0.00deg) ;opacity: 1.00;}4.00% {transform: translate(0.00px,0.00px) rotate(0.00deg) scale(0.91, 0.91) ;}8.00% {animation-timing-function: cubic-bezier(0.69,0.60,0.35,0.27);transform: translate(0.00px,0.00px) rotate(0.00deg) scale(0.91, 0.91) ;}14.00% {transform: translate(0.00px,0.00px) rotate(0.00deg) scale(0.93, 0.93) ;}18.00% {transform: translate(0.00px,0.00px) rotate(0.00deg) scale(0.94, 0.94) ;}22.00% {animation-timing-function: cubic-bezier(0.67,0.66,0.34,0.33);transform: translate(0.00px,0.00px) rotate(0.00deg) scale(0.96, 0.96) ;}26.00% {transform: translate(0.00px,0.00px) rotate(0.00deg) scale(0.97, 0.97) ;}30.00% {transform: translate(0.00px,0.00px) rotate(0.00deg) scale(0.99, 0.99) ;}34.00% {animation-timing-function: cubic-bezier(0.65,0.71,0.32,0.38);transform: translate(0.00px,0.00px) rotate(0.00deg) scale(1.01, 1.01) ;}40.00% {animation-timing-function: cubic-bezier(0.64,0.74,0.31,0.41);transform: translate(0.00px,0.00px) rotate(0.00deg) scale(1.02, 1.02) ;}46.00% {animation-timing-function: cubic-bezier(0.60,0.91,0.23,0.63);transform: translate(0.00px,0.00px) rotate(0.00deg) scale(1.03, 1.03) ;}50.00% {transform: translate(0.00px,0.00px) rotate(0.00deg) scale(1.03, 1.03) ;}54.00% {transform: translate(0.00px,0.00px) rotate(0.00deg) scale(1.03, 1.03) ;}58.00% {animation-timing-function: cubic-bezier(0.69,0.60,0.35,0.27);transform: translate(0.00px,0.00px) rotate(0.00deg) scale(1.03, 1.03) ;}64.00% {transform: translate(0.00px,0.00px) rotate(0.00deg) scale(1.01, 1.01) ;}68.00% {transform: translate(0.00px,0.00px) rotate(0.00deg) scale(1.00, 1.00) ;}72.00% {animation-timing-function: cubic-bezier(0.67,0.66,0.34,0.33);transform: translate(0.00px,0.00px) rotate(0.00deg) scale(0.98, 0.98) ;}76.00% {animation-timing-function: cubic-bezier(0.66,0.68,0.33,0.35);transform: translate(0.00px,0.00px) rotate(0.00deg) scale(0.97, 0.97) ;}82.00% {animation-timing-function: cubic-bezier(0.65,0.71,0.32,0.38);transform: translate(0.00px,0.00px) rotate(0.00deg) scale(0.94, 0.94) ;}88.00% {animation-timing-function: cubic-bezier(0.65,0.73,0.31,0.40);transform: translate(0.00px,0.00px) rotate(0.00deg) scale(0.92, 0.92) ;}94.00% {animation-timing-function: cubic-bezier(0.63,0.80,0.28,0.48);transform: translate(0.00px,0.00px) rotate(0.00deg) scale(0.91, 0.91) ;}100.00% {animation-timing-function: cubic-bezier(0.63,0.80,0.28,0.48);transform: translate(0.00px,0.00px) rotate(0.00deg) scale(0.91, 0.91) ;} }</STYLE><!-- [ldio] generated by https://loading.io --></svg>